<?xml version="1.0"?>
<svg xmlns="http://www.w3.org/2000/svg" viewBox="0 0 96 96" width="512px" height="512px"><g id="_05-security" data-name="05-security"><g id="Glyph"><path d="M90.828,13.171l-12-12A4,4,0,0,0,74.09.485,25.414,25.414,0,0,1,50.064.574a4,4,0,0,0-4.128,0A25.537,25.537,0,0,1,21.91.485a4,4,0,0,0-4.738.686l-12,12A4,4,0,0,0,4,16V60a4.005,4.005,0,0,0,1.5,3.124l40,32a4,4,0,0,0,5,0l40-32A4.005,4.005,0,0,0,92,60V16A4,4,0,0,0,90.828,13.171ZM80,54.232a4,4,0,0,1-1.5,3.124l-28,22.4a4,4,0,0,1-5,0l-28-22.4A4,4,0,0,1,16,54.232V20.971a4,4,0,0,1,1.172-2.829l2.905-2.9a4.007,4.007,0,0,1,3.908-1.023,37.659,37.659,0,0,0,22.684-.9,4,4,0,0,1,2.662,0,37.658,37.658,0,0,0,22.684.9,4.006,4.006,0,0,1,3.908,1.023l2.905,2.9A4,4,0,0,1,80,20.971Z" fill="#FFFFFF"/><path d="M73.1,18.065a40.242,40.242,0,0,1-10.873,1.483A42.634,42.634,0,0,1,48,17.085a42.653,42.653,0,0,1-14.225,2.463,40.217,40.217,0,0,1-10.871-1.483L20,20.971V54.232l28,22.4,28-22.4V20.971ZM46.828,54.829a4,4,0,0,1-5.656,0l-8-8,5.656-5.658L44,46.343,57.172,33.171l5.656,5.658Z" fill="#FFFFFF"/></g></g></svg>
