<svg xmlns="http://www.w3.org/2000/svg" xmlns:xlink="http://www.w3.org/1999/xlink" width="200" height="200" class="ldi-6d8ogq" preserveAspectRatio="xMidYMid" viewBox="0 0 100 100" style="background:0 0"><svg xmlns="http://www.w3.org/2000/svg" xmlns:xlink="http://www.w3.org/1999/xlink" id="圖層_1" x="0" y="0" version="1.1" viewBox="0 0 100 100" style="transform-origin:50px 50px 0" xml:space="preserve"><g style="transform-origin:50px 50px 0"><g style="transform-origin:50px 50px 0;transform:scale(.6)"><g style="transform-origin:50px 50px 0"><g><style class="ld ld-wrench" type="text/css" style="transform-origin:50px 50px 0px;animation-duration:1.5s;animation-delay:-6s;animation-direction:reverse">.st0{fill:#333}.st1{fill:#f8b26a}</style><g class="ld ld-wrench" style="transform-origin:50px 50px 0;animation-duration:1.5s;animation-delay:-5.5s;animation-direction:reverse"><path fill="#003b64" d="M85.713,31.761l-9.801,2.923c-0.949-1.595-2.043-3.092-3.261-4.478l5.813-8.425 c-2.988-3.002-6.455-5.523-10.269-7.46l-6.209,8.123c-1.683-0.726-3.447-1.298-5.273-1.708l-0.249-10.23 C54.396,10.177,52.277,10,50.117,10s-4.279,0.177-6.346,0.506l-0.249,10.23c-1.826,0.41-3.59,0.982-5.273,1.708l-6.209-8.123 c-3.814,1.936-7.28,4.458-10.269,7.46l5.813,8.425c-1.219,1.386-2.312,2.883-3.261,4.478l-9.801-2.923 c-1.912,3.724-3.265,7.781-3.929,12.069l9.657,3.4c-0.084,0.913-0.132,1.836-0.132,2.77s0.049,1.857,0.132,2.77l-9.657,3.4 c0.664,4.288,2.017,8.345,3.929,12.069l9.801-2.923c0.949,1.595,2.043,3.092,3.261,4.478l-5.813,8.425 c2.988,3.002,6.455,5.523,10.269,7.46l6.209-8.123c1.683,0.726,3.447,1.298,5.273,1.708l0.249,10.23 C45.838,89.823,47.957,90,50.117,90s4.279-0.177,6.346-0.506l0.249-10.23c1.826-0.41,3.59-0.982,5.273-1.708l6.209,8.123 c3.814-1.936,7.28-4.458,10.269-7.46l-5.813-8.425c1.219-1.386,2.312-2.883,3.261-4.478l9.801,2.923 c1.912-3.724,3.265-7.781,3.929-12.069l-9.657-3.4c0.084-0.913,0.132-1.836,0.132-2.77s-0.049-1.857-0.132-2.77l9.657-3.4 C88.978,39.542,87.625,35.485,85.713,31.761z M50,70c-11.046,0-20-8.954-20-20c0-11.046,8.954-20,20-20s20,8.954,20,20 C70,61.046,61.046,70,50,70z" class="st0" style="fill:#003b64"/></g><g class="ld ld-wrench" style="transform-origin:50px 50px 0;animation-duration:1.5s;animation-delay:-5s;animation-direction:reverse"><path fill="rgba(100%,76.48458904109587%,0%,0.929)" d="M60.678,60.884c3.567-3.567,4.981-8.46,4.268-13.09c-0.091-0.589-0.822-0.821-1.243-0.4l-9.189,9.188 c-0.609,0.609-1.497,0.847-2.329,0.624l-6.049-1.621c-0.832-0.223-1.482-0.873-1.705-1.705l-1.621-6.049 c-0.223-0.832,0.015-1.72,0.624-2.329l9.188-9.188c0.423-0.423,0.188-1.154-0.403-1.245c-5.023-0.771-10.353,0.959-13.965,5.224 c-4.063,4.798-4.622,11.62-1.764,17.001L11.626,78.386c-2.926,2.733-3.005,7.346-0.174,10.177s7.445,2.752,10.177-0.174 l21.089-24.86C48.485,66.619,55.813,65.749,60.678,60.884z M14.314,85.702c-1.301-1.301-1.301-3.412,0-4.713s3.412-1.301,4.713,0 s1.301,3.412,0,4.713S15.616,87.004,14.314,85.702z" class="st1" style="fill:rgba(255,195,0,.93)"/></g><metadata xmlns:d="https://loading.io/stock/" class="ld ld-wrench" style="transform-origin:50px 50px 0;animation-duration:1.5s;animation-delay:-4.5s;animation-direction:reverse"><d:name class="ld ld-wrench" style="transform-origin:50px 50px 0;animation-duration:1.5s;animation-delay:-4s;animation-direction:reverse">wrench</d:name><d:tags class="ld ld-wrench" style="transform-origin:50px 50px 0;animation-duration:1.5s;animation-delay:-3.5s;animation-direction:reverse">config,setting,machinary,profile,setup,edit,asembly,wrench,gear</d:tags><d:license class="ld ld-wrench" style="transform-origin:50px 50px 0;animation-duration:1.5s;animation-delay:-3s;animation-direction:reverse">cc-by</d:license><d:slug class="ld ld-wrench" style="transform-origin:50px 50px 0;animation-duration:1.5s;animation-delay:-2.5s;animation-direction:reverse">6d8ogq</d:slug></metadata></g></g></g></g><style class="ld ld-wrench" type="text/css" style="transform-origin:50px 50px 0px;animation-duration:1.5s;animation-delay:-2s;animation-direction:reverse">@keyframes ld-wrench{20%,36%,70%,86%{-webkit-transform:rotate(0deg);transform:rotate(0deg)}0%,50%{-webkit-transform:rotate(45deg);transform:rotate(45deg)}}@-webkit-keyframes ld-wrench{20%,36%,70%,86%{-webkit-transform:rotate(0deg);transform:rotate(0deg)}0%,50%{-webkit-transform:rotate(45deg);transform:rotate(45deg)}}path{stroke-width:0}.ld.ld-wrench{-webkit-animation:ld-wrench 1s infinite;animation:ld-wrench 1s infinite}</style></svg></svg>