<?xml version="1.0"?>
<svg xmlns="http://www.w3.org/2000/svg" id="Capa_1" enable-background="new 0 0 512 512" height="512px" viewBox="0 0 512 512" width="512px"><g><g><path d="m421 62v-7c0-30.327-24.673-55-55-55h-220c-30.327 0-55 24.673-55 55v7z" fill="#FFFFFF"/></g><g><path d="m91 412v45c0 30.327 24.673 55 55 55h220c30.327 0 55-24.673 55-55v-45zm67.5 65c-8.284 0-15-6.716-15-15s6.716-15 15-15 15 6.716 15 15-6.716 15-15 15zm127.5 0h-60c-8.284 0-15-6.716-15-15s6.716-15 15-15h60c8.284 0 15 6.716 15 15s-6.716 15-15 15zm67.5 0c-8.284 0-15-6.716-15-15s6.716-15 15-15 15 6.716 15 15-6.716 15-15 15z" fill="#FFFFFF"/></g><g><path d="m173.5 278.412h30v30h-30z" fill="#FFFFFF"/><path d="m308.5 158.412h30v30h-30z" fill="#FFFFFF"/><path d="m173.5 158.412h30v30h-30z" fill="#FFFFFF"/><path d="m91 92v290h330v-290zm187.5 51.412c0-8.284 6.716-15 15-15h60c8.284 0 15 6.716 15 15v60c0 8.284-6.716 15-15 15h-60c-8.284 0-15-6.716-15-15zm-45 180c0 8.284-6.716 15-15 15h-60c-8.284 0-15-6.716-15-15v-60c0-8.284 6.716-15 15-15h60c8.284 0 15 6.716 15 15zm0-120c0 8.284-6.716 15-15 15h-60c-8.284 0-15-6.716-15-15v-60c0-8.284 6.716-15 15-15h60c8.284 0 15 6.716 15 15zm134.246 113.033c5.858 5.858 5.858 15.355 0 21.213-2.929 2.929-6.768 4.394-10.606 4.394s-7.678-1.464-10.606-4.394l-10.607-10.607-14.142 14.142c-2.85 2.851-6.682 4.394-10.607 4.394-1.305 0-2.62-.17-3.914-.521-5.185-1.401-9.225-5.468-10.592-10.663l-17.678-67.175c-1.357-5.159.127-10.651 3.9-14.424 3.772-3.772 9.265-5.256 14.424-3.9l67.175 17.678c5.194 1.367 9.261 5.407 10.663 10.592s-.076 10.723-3.874 14.521l-14.142 14.142z" fill="#FFFFFF"/><path d="m319.038 301.514 12.564-12.564-17.051-4.488z" fill="#FFFFFF"/></g></g></svg>
