<svg xmlns="http://www.w3.org/2000/svg" viewBox="235.65 136.15 698.41 554.41">
    <path fill="#3571b8" d="M423.7 239.68c31.68-59.74 95.87-100.74 163.59-103.23 66.07-3.8 132.01 29.17 169.86 83.21-7.33 30.61-34.9 53.35-66.25 55.24-46.95 5.48-93.83-7.47-140.82-2.87-31.36 2.79-61.71 17.81-82.08 41.96-28.6 34.14-38.44 80.4-37.3 124.02-38.16-58.31-40.55-137.39-7-198.33Z" style="--darkreader-inline-fill:#3a6daa"/>
    <path fill="#f9f9f7" d="M757.15 219.66c3.73 4.46 8.11 9.11 8.76 15.15.82 37.3 8.5 75.98-2.68 112.37-9.48 28.6-34.19 50.05-62.1 59.97-27.27 10.07-57.23 11.42-85.71 6.47-38.21-6.19-78.07-8.2-115.77 2.01-22.81 6.21-44.85 17.89-59.63 36.78-3.45-4.52-7.67-8.86-9.32-14.4-1.14-43.62 8.7-89.88 37.3-124.02 20.37-24.15 50.72-39.17 82.08-41.96 46.99-4.6 93.87 8.35 140.82 2.87 31.35-1.89 58.92-24.63 66.25-55.24m-50.75 58.7c-38.76 8.47-78.57 1.9-117.41-2.4-36.2-3.3-75.34 4.08-103.16 28.85-32.51 28.87-47.17 73.17-49.76 115.54 9.82-33.46 25.96-66.39 53.19-89.09 25.66-22.02 60.29-31.47 93.7-29.53 40.2 3.91 81.9 11.06 121.37-1.47 28.11-7.59 50.12-32.19 53.67-61.22-10.18 20.16-29.36 35.05-51.6 39.32m14.28 21.32c-35.13 17.1-75.78 15.12-113.63 11.24-31.66-4.79-65.5-3.25-94.39 11.73-37.85 19.42-62.25 58.92-70.8 99.7 17.48-35.34 45.1-67.82 83.24-81.25 25.55-9.5 53.59-9.99 80.21-5.39 36.68 5.21 76.33 6.96 110.42-9.9 27.02-13.13 43.93-42.53 44.43-72.21-7.3 19.37-20.39 37.07-39.48 46.08m2.12 28.09c-34.2 19.23-75.26 18.24-113.13 14.57-24.61-3.64-50.1-4.81-74.29 2.02-41.07 10.84-74.6 43.65-89.68 82.9 14.82-18.91 33.16-35.46 55.35-45.21 35.42-16.67 75.92-16.16 113.75-9.78 46.33 5.55 103.15.31 131.8-41.66 11.43-16.85 16.4-37.45 16.11-57.67-6.14 22.31-19.22 43.43-39.91 54.83m12.74 23.79c-24.09 21.89-57.83 29.03-89.54 28.83-26.52.37-52.49-6.71-79.02-6.01-47.14-.64-99.24 19.13-121.14 63.52 43.82-39.01 107.64-38.95 162.62-32.39 39.73 6.5 83.74 4.19 117.96-19.1 25.62-17.04 39.51-48.68 36.79-79.06-5.69 16.59-14.3 32.53-27.67 44.21Z" style="--darkreader-inline-fill:#dbd9d5"/>
    <path fill="#3571b8" d="M765.91 234.81c25.82 41.65 32.28 94.12 21.56 141.62-13.65 61.07-58.44 114-116.32 137.74-60.2 25.57-133.03 17.84-186.51-19.83-17.05-11.48-31.38-26.35-44.62-41.93 14.78-18.89 36.82-30.57 59.63-36.78 37.7-10.21 77.56-8.2 115.77-2.01 28.48 4.95 58.44 3.6 85.71-6.47 27.91-9.92 52.62-31.37 62.1-59.97 11.18-36.39 3.5-75.07 2.68-112.37Z" style="--darkreader-inline-fill:#3a6daa"/>
    <path fill="#17a64c" d="M706.4 278.36c22.24-4.27 41.42-19.16 51.6-39.32-3.55 29.03-25.56 53.63-53.67 61.22-39.47 12.53-81.17 5.38-121.37 1.47-33.41-1.94-68.04 7.51-93.7 29.53-27.23 22.7-43.37 55.63-53.19 89.09 2.59-42.37 17.25-86.67 49.76-115.54 27.82-24.77 66.96-32.15 103.16-28.85 38.84 4.3 78.65 10.87 117.41 2.4Z" style="--darkreader-inline-fill:#3a8455"/>
    <path fill="#fbe20d" d="M720.68 299.68c19.09-9.01 32.18-26.71 39.48-46.08-.5 29.68-17.41 59.08-44.43 72.21-34.09 16.86-73.74 15.11-110.42 9.9-26.62-4.6-54.66-4.11-80.21 5.39-38.14 13.43-65.76 45.91-83.24 81.25 8.55-40.78 32.95-80.28 70.8-99.7 28.89-14.98 62.73-16.52 94.39-11.73 37.85 3.88 78.5 5.86 113.63-11.24Z" style="--darkreader-inline-fill:#c1b239"/>
    <path fill="#ec232a" d="M722.8 327.77c20.69-11.4 33.77-32.52 39.91-54.83.29 20.22-4.68 40.82-16.11 57.67-28.65 41.97-85.47 47.21-131.8 41.66-37.83-6.38-78.33-6.89-113.75 9.78-22.19 9.75-40.53 26.3-55.35 45.21 15.08-39.25 48.61-72.06 89.68-82.9 24.19-6.83 49.68-5.66 74.29-2.02 37.87 3.67 78.93 4.66 113.13-14.57Z" style="--darkreader-inline-fill:#c6393e"/>
    <path fill="#262223" d="M735.54 351.56c13.37-11.68 21.98-27.62 27.67-44.21 2.72 30.38-11.17 62.02-36.79 79.06-34.22 23.29-78.23 25.6-117.96 19.1-54.98-6.56-118.8-6.62-162.62 32.39 21.9-44.39 74-64.16 121.14-63.52 26.53-.7 52.5 6.38 79.02 6.01 31.71.2 65.45-6.94 89.54-28.83Z" style="--darkreader-inline-fill:#2e3234"/>
    <g fill="#221e1f">
        <path d="M389.83 572.77c7.72-14.08 32.75-12.93 37.01 3.44-9.55 8.12-12.62-8.53-22.25-4.66-13.18 4.42-11.62 32.5 4.18 31.28 5.18-.36 7.43-5.63 9.49-9.62 2.89.99 5.81 1.91 8.72 2.9-2.48 12.8-17.86 18.59-28.95 12.88-12.9-6.48-14.49-24.59-8.2-36.22ZM636.71 585.13c3.64-11.1 20.65-12.57 27.76-4.56 3.03 9.54-.02 19.99 2.51 29.76-9.9-5.54-24.28 7.24-30.31-6.01-3.74-13.04 12.51-13.7 20.9-16.4-3.24-12.17-13.67 2.67-20.86-2.79m9.4 17.75c5.69 5.41 12.86-2.29 11.11-8.67-4.42.93-14.86 1.88-11.11 8.67ZM580.64 576.7c3.04-.04 6.08.13 9.14.1 2.73 7.13 5.07 14.42 8.04 21.47 2.92-7.14 5.26-14.5 8.24-21.61 2.97.09 5.95.08 8.93-.02-3.97 11.36-8.74 22.41-13.12 33.61-3.26-.31-8.15 1.47-9.31-2.83-3.93-10.26-8.54-20.27-11.92-30.72ZM585.67 642.64c-1.58-10.89 9.26-15.42 18.28-12.2-.53 1.89-.97 3.9-.78 5.99-2.56.37-5.11.73-7.67.98-.15 1.79-.33 3.58-.53 5.38 2.28.18 4.54.55 6.82.74-.1 2.08-.09 4.18.02 6.28-2.2.21-4.38.56-6.58.72-.42 8.85.06 17.7-.26 26.55-2.93-.18-5.86-.21-8.79-.09-.22-8.76.39-17.53-.34-26.28-1.56-.38-3.12-.76-4.66-1.16.26-1.94.26-3.9.01-5.83 1.48-.39 2.98-.74 4.48-1.08ZM815.1 630.18c2.82.22 5.66.28 8.5.17.01 5.17.29 10.35.18 15.53 14.08-11 29.29 6.68 23.07 20.95-2.09 10.71-15.99 14.24-23.39 6.48-.27 1.19-.53 2.38-.77 3.59-2.6-.18-5.2-.06-7.77.26-.16-15.66-.46-31.34.18-46.98m15.24 19.22c-9.67 1.9-8.96 19.99.78 21.25 10.51-.67 10.12-21.77-.78-21.25ZM487.76 643.19c3.01.1 6.02.11 9.03.02 2.95 7.53 5.07 15.34 7.86 22.92 3.48-7.24 5.25-15.12 7.92-22.67 3.11-.06 6.23-.22 9.34-.33-4.75 13.69-9.65 27.36-14.99 40.83-2.62 6.69-10.73 7.32-16.82 6.1.11-2.18.04-4.35-.35-6.48 4.12-.15 10.31-1.09 9.95-6.53-2.93-11.61-8.92-22.25-11.94-33.86Z" opacity=".97" style="--darkreader-inline-fill:#2b2f31"/>
    </g>
    <g fill="#221e1f">
        <path d="M434.7 563.73c3.03.16 6.08.24 9.12.19-.16 2.71-.16 5.43 0 8.15-3.04-.04-6.09.03-9.12.2.17-2.85.17-5.7 0-8.54ZM488.67 563.74c3.04.15 6.1.23 9.16.19-.17 2.71-.17 5.42-.01 8.14-3.05-.05-6.11.03-9.16.19.18-2.84.18-5.69.01-8.52ZM506.84 563.74c2.95.17 5.91.24 8.88.17-.05 15.42-.06 30.84.01 46.26-2.97-.07-5.94-.01-8.89.15-.31-15.52-.31-31.06 0-46.58ZM434.87 576.63c2.94.09 5.89.18 8.85.15-.04 11.13-.05 22.25 0 33.38-2.95-.06-5.91 0-8.86.17-.3-11.23-.29-22.47.01-33.7ZM488.83 576.63c2.96.09 5.93.18 8.9.15-.05 11.13-.06 22.25 0 33.38-2.97-.06-5.94 0-8.9.17-.31-11.24-.29-22.48 0-33.7ZM348.1 630.17c2.82.23 5.66.29 8.5.18.05 5.43.29 10.86.17 16.29 5.81-5.03 17.12-6.3 20.62 1.97 2.05 9.28.72 18.97.81 28.43-14.32 3.65-7.01-13.97-8.93-22.04.63-6.96-10.03-7.3-11.61-1.36-1.86 7.62-.57 15.57-.9 23.33-2.95-.11-5.9-.07-8.84.11-.16-15.63-.46-31.28.18-46.91ZM623.37 630.47c11.26-.22 22.51.01 33.76-.15.32 16.01-17.4 25.13-24.45 38.53 8.56.35 17.13-.06 25.7.21-.23 2.61-.23 5.24-.01 7.86-12.55.14-25.09.11-37.64.02-.86-16.13 16.57-25.14 23.72-38.25-7.09-.64-14.22.04-21.31-.69.23-2.51.32-5.02.23-7.53ZM777.63 651.94c3.17-13.55 30.21-13.31 28.95 2.33-.07 7.64-.45 15.35 1.32 22.86-5.32.91-10.23-3.99-15.22-.52-7.41 3.96-18.12-2.58-15.54-11.36 2.63-9.01 14.08-7.51 21.13-10.54-3.27-12.52-13.39 2.58-20.64-2.77m9.44 17.98c5.94 4.56 12.21-2.64 10.95-8.82-4.65.52-15.55 1.93-10.95 8.82ZM396.43 643.46c14.42-5.99 29.07 10.43 22.16 24.16-4.23 10.52-18.96 13.14-27.45 6.26-9.65-7.96-7.18-26.66 5.29-30.42m3.96 6.73c-8.94 2.95-7.76 20.43 2.58 20.11 11.91-.57 9.77-23.53-2.58-20.11ZM850.65 643.19c2.72.14 5.46.12 8.2-.04 2.54 6.89 3.78 14.2 6.64 20.99 2.11-6.95 3.55-14.07 5.7-21.01 2.83.21 5.67.24 8.52.09 1.98 6.96 3.18 14.14 5.74 20.92 2.26-6.84 4.01-13.84 6.1-20.74 2.86.02 5.73-.1 8.59-.31-2.63 11.51-7.09 22.5-10.4 33.82-2.87-.11-5.74-.04-8.59.16-2.05-6.99-3.77-14.06-5.63-21.1-2.31 6.88-3.89 13.97-5.77 20.97-2.89-.13-5.77-.08-8.64.12-3.61-11.25-7.57-22.45-10.46-33.87Z" opacity=".96" style="--darkreader-inline-fill:#2b2f31"/>
    </g>
    <g fill="#221e1f">
        <path d="M553.37 564.14c3.44-.34 6.91-.45 10.37-.12 5.93 15.47 12.47 30.7 18.25 46.23-3.32 0-6.64-.01-9.96.02-1.23-3.52-3.01-6.82-4.21-10.34-6.18-.41-12.36-.44-18.53.1-1.14 3.37-2.5 6.66-3.58 10.04-3.3.09-6.59.26-9.87.14 5.3-15.55 11.94-30.62 17.53-46.07m-.68 27.6c4.03.18 8.07.22 12.11.14-2.04-5.63-4.01-11.29-6.2-16.87-2.46 5.4-4.4 11-5.91 16.73ZM448.76 576.68c3.03.05 6.06.09 9.1.02 2.77 7.08 5.16 14.3 7.79 21.44 3.52-6.87 5.49-14.37 8.47-21.47 2.99.1 5.98.08 8.97.03-3.99 11.36-8.74 22.44-13.19 33.63-2.61-.26-5.24-.24-7.84.05-4.57-11.18-9.42-22.26-13.3-33.7ZM555.35 643.29c14.66-5.58 28.67 11.8 21.04 25.13-4.68 10-18.92 12.15-27.16 5.36-9.71-8.16-6.81-27.29 6.12-30.49m3.05 6.98c-9.13 3.24-7.22 21.24 3.49 20 11.35-1.62 8.66-23.73-3.49-20Z" opacity=".98" style="--darkreader-inline-fill:#2b2f31"/>
    </g>
    <g fill="#211d1e">
        <path d="M620.63 563.72c3.05.17 6.1.26 9.15.25-.16 2.68-.16 5.38 0 8.07-3.05-.03-6.1.07-9.14.23.16-2.85.16-5.7-.01-8.55ZM762.62 580.28c5.39-5.77 17.02-6.55 20.56 1.51 2.12 9.31.77 19.04.9 28.53-2.96-.16-5.91-.21-8.86-.11-.3-7.92.78-15.96-.64-23.8-1.2-5.71-10.31-4.14-11.31.97-1.48 7.46-.33 15.15-.57 22.72-3.13.08-6.27.08-9.39 0 .1-11.08.08-22.16.01-33.24 3.65-.38 8.2-1.18 9.3 3.42ZM620.8 576.61c2.96.09 5.92.22 8.89.22-.09 11.09-.09 22.19-.01 33.28-2.96-.04-5.92.06-8.87.23-.33-11.24-.32-22.49-.01-33.73Z" opacity=".95" style="--darkreader-inline-fill:#2a2e30"/>
    </g>
    <g fill="#231f20">
        <path d="M695.96 563.8c3.03.11 6.07.1 9.12-.04-.17 2.82-.17 5.65-.01 8.47-3.04-.14-6.08-.15-9.11-.03.16-2.8.16-5.61 0-8.4ZM696.09 576.67c2.95.11 5.9.1 8.85-.03.13 11.22.13 22.44 0 33.66-2.95-.15-5.9-.16-8.84-.03-.11-11.2-.11-22.4-.01-33.6Z" style="--darkreader-inline-fill:#2b2f31"/>
    </g>
    <g fill="#221e1f">
        <path d="M674.18 575.85c-.02-5.92 4.67-9.02 9.64-10.92.05 3.83.32 7.66.36 11.5 1.95.21 3.9.44 5.86.7-.18 2.11-.21 4.24-.08 6.37-1.96.21-3.91.42-5.86.63-.31 6.24-.28 12.48.1 18.72 1.97-.03 3.83.77 5.82.73-.02 2.15.34 4.28.9 6.37-4.92.97-12.14 2.63-14.98-2.85-2.13-7.24-.32-14.91-1.27-22.32-4.9-1.05-5.28-7.36-.49-8.93ZM452.15 643.17c2.9.14 5.82.13 8.74-.02.24 11.3.16 22.6.05 33.91-2.95-.17-5.9-.18-8.84-.04-.11-11.29-.19-22.57.05-33.85Z" opacity=".98" style="--darkreader-inline-fill:#2b2f31"/>
    </g>
    <path fill="#020202" d="M552.69 591.74c1.51-5.73 3.45-11.33 5.91-16.73 2.19 5.58 4.16 11.24 6.2 16.87-4.04.08-8.08.04-12.11-.14Z" opacity=".07" style="--darkreader-inline-fill:#141718"/>
    <g fill="#221e1f">
        <path d="M724.35 576.42c14.98-5.2 28.25 12.96 20.14 26-5.11 9.94-19.97 11.33-27.72 3.8-8.79-8.78-5.23-26.99 7.58-29.8m3.11 6.98c-9.52 2.58-8.22 20.72 2.41 20.27 11.48-.92 9.63-23.02-2.41-20.27ZM253.49 630.44c3.3-.06 6.6-.03 9.91.04 6.17 15.5 12.52 30.94 18.51 46.52-3.32-.05-6.63-.02-9.94.04-1.26-3.6-3.29-6.88-4.46-10.51-6.07-.29-12.14-.3-18.21-.12-1.16 3.48-2.76 6.82-3.73 10.37-3.3.09-6.61.23-9.92.22 5.35-15.73 11.88-31.05 17.84-46.56m-1.35 27.85c4.01.35 8.03.55 12.05.35-1.37-5.72-3.45-11.2-5.73-16.6-2.51 5.25-4.44 10.75-6.32 16.25ZM664.23 643.17c2.92.14 5.84.13 8.76-.02.44 11.29.31 22.61.09 33.91-2.97-.17-5.94-.19-8.9-.07-.02-11.28-.09-22.55.05-33.82Z" opacity=".97" style="--darkreader-inline-fill:#2b2f31"/>
    </g>
    <path fill="#020101" d="M646.11 602.88c-3.75-6.79 6.69-7.74 11.11-8.67 1.75 6.38-5.42 14.08-11.11 8.67Z" opacity=".05" style="--darkreader-inline-fill:#141617"/>
    <path fill="#201c1d" d="M452.04 630.21c2.97.15 5.95.15 8.92 0-.11 2.92-.06 5.85.14 8.78-3.06-.14-6.13-.14-9.18-.02.19-2.92.23-5.84.12-8.76Z" opacity=".92" style="--darkreader-inline-fill:#292d2f"/>
    <path fill="#201c1d" d="M664.21 630.32c2.95.11 5.9.05 8.84-.16-.05 2.94.03 5.89.21 8.84-3.11-.15-6.21-.17-9.31-.07.21-2.87.34-5.74.26-8.61Z" opacity=".91" style="--darkreader-inline-fill:#292d2f"/>
    <g fill="#221e1f">
        <path d="M739.43 630.36c2.84.11 5.69.04 8.54-.18.27 5.22.53 10.46.23 15.7 13.44-10.54 28.92 5.46 23.4 19.77-1.3 11.2-15.61 15.83-23.44 7.83-.27 1.1-.53 2.21-.78 3.33-2.71-.15-5.41.11-8.11.25.15-15.57-.12-31.14.16-46.7m14.96 19.09c-9.27 2.47-8.34 20.41 1.6 21.15 10.42-1.19 9.46-22.22-1.6-21.15ZM903.51 667.41c-4.92-11.83 4.31-28.53 18.39-24.51 9.18 1.48 12.58 11.61 12.12 19.78-7.51.14-15.04-.32-22.53.32 2.18 15.18 13.62.69 21.81 4.39-3.09 14-26.37 13.7-29.79.02m8.04-10.5c4.58.4 9.2.41 13.8-.01-.09-9.55-13.88-9.67-13.8.01Z" opacity=".96" style="--darkreader-inline-fill:#2b2f31"/>
    </g>
    <g fill="#221e1f">
        <path d="M325.92 641.95c.37-5.55 4.76-8.55 9.61-10.14.12 3.67.31 7.34.4 11.02 1.95.23 3.91.47 5.87.73-.11 2.05-.1 4.11 0 6.17-1.91.31-3.82.61-5.73.9-.69 6.31-.62 12.64 0 18.96 2.01.22 4.02.45 6.03.69 3.18 8.66-8.83 9.29-13.44 5.05-5.44-8.1 2.32-20.01-5.47-26.93-2.25-2.54 1.02-4.84 2.73-6.45ZM286.88 643.08c2.89.22 5.8.3 8.7.24.35 7.82-.59 15.71.47 23.5.92 6.21 10.97 4.54 11.57-1.07 1.24-7.46.38-15.06.65-22.58 2.9.14 5.81.12 8.72-.04.45 11.34.31 22.7.09 34.04-2.58-.32-5.18-.45-7.77-.27-.26-1.2-.52-2.39-.78-3.57-5.79 4.97-16.64 6.82-20.69-1.18-2.46-9.42-.96-19.43-.96-29.07ZM681.42 643.22c2.62.13 5.26.3 7.9.09.3 1.05.61 2.11.93 3.17 5.74-4.94 14.03-5.01 19.65.18 5.59-4.8 16.32-6.44 19.94 1.46 2.36 9.4.75 19.31 1.08 28.91-2.97-.13-5.94-.12-8.9.04-1.83-8.76 3.66-21.22-3.58-27.55-12.64 1.16-6.12 18.89-7.68 27.46-2.97-.12-5.94-.08-8.9.1-1.73-8.82 2.92-20.02-2.75-27.32-13.7-.72-7.07 18.76-8.91 27.26-2.83-.11-5.65-.04-8.46.17-.78-11.31-.22-22.65-.32-33.97Z" opacity=".96" style="--darkreader-inline-fill:#2b2f31"/>
    </g>
    <path fill="#201d1e" d="M470.11 651.65c-8.55-5.23 2.03-18.07 9.33-19.82.12 3.63.37 7.26.48 10.9 1.9.32 3.8.66 5.71 1.03-.08 1.86-.06 3.74.08 5.62-10.33.65-5.11 13.3-5.71 20.19 1.98.24 3.97.51 5.96.78-.18 2.19-.16 4.38.01 6.58-17.5 6.39-16.44-14.04-15.86-25.28Z" opacity=".93" style="--darkreader-inline-fill:#2a2d2f"/>
    <path fill="#030303" d="M252.14 658.29c1.88-5.5 3.81-11 6.32-16.25 2.28 5.4 4.36 10.88 5.73 16.6-4.02.2-8.04 0-12.05-.35Z" opacity=".09" style="--darkreader-inline-fill:#151718"/>
    <path fill="#201c1d" d="M435.23 646.48c3.46-3.88 8.53-4.99 13.22-2.61-.92 2.42-1.78 4.88-2.36 7.42-15.11-3.47-9.49 16.82-10.37 25.66-3.14-.05-6.29-.05-9.43.01.16-11.26 0-22.51.12-33.76 2.66.1 5.33.29 8.01.1.26 1.05.53 2.11.81 3.18Z" opacity=".92" style="--darkreader-inline-fill:#292d2f"/>
    <path fill="#020202" d="M787.07 669.92c-4.6-6.89 6.3-8.3 10.95-8.82 1.26 6.18-5.01 13.38-10.95 8.82Z" opacity=".05" style="--darkreader-inline-fill:#141718"/>
</svg>