<svg xmlns="http://www.w3.org/2000/svg" width="659pt" height="203pt" version="1.1" viewBox="0 0 659 203"><g id="#6a6868ff"><path fill="#6a6868" d="M 91.18 6.14 C 95.19 6.14 99.19 6.13 103.19 6.14 C 103.16 55.38 103.14 104.62 103.10 153.86 C 99.09 153.87 95.09 153.86 91.09 153.86 C 91.09 149.08 91.08 144.30 91.10 139.52 C 81.88 149.43 68.64 155.57 55.05 155.63 C 41.25 156.06 26.98 150.69 17.97 140.03 C 8.42 129.20 4.82 114.22 5.51 100.05 C 5.85 86.61 10.57 72.84 20.40 63.38 C 30.33 53.33 45.24 49.75 59.00 50.96 C 71.55 51.83 83.37 58.43 91.19 68.23 C 91.18 47.53 91.18 26.83 91.18 6.14 M 44.49 63.62 C 35.36 65.61 27.51 71.98 23.17 80.18 C 18.25 88.90 17.25 99.26 18.12 109.07 C 19.01 118.24 22.29 127.54 28.98 134.08 C 35.72 140.87 45.54 143.86 54.95 143.61 C 68.25 143.48 80.51 135.61 88.23 125.11 C 89.46 123.28 91.21 121.49 91.06 119.11 C 91.17 109.23 91.50 99.13 88.60 89.56 C 85.94 80.48 80.62 71.66 72.21 66.88 C 63.90 62.04 53.71 61.51 44.49 63.62 Z" opacity="1"/><path fill="#6a6868" d="M 210.80 25.00 C 214.81 25.00 218.81 25.00 222.82 25.01 C 222.81 34.18 222.82 43.35 222.82 52.53 C 231.24 52.55 239.66 52.52 248.08 52.54 C 248.09 56.58 248.09 60.62 248.09 64.66 C 239.66 64.67 231.24 64.66 222.82 64.67 C 222.82 87.09 222.80 109.52 222.83 131.94 C 222.90 135.27 223.03 139.57 226.36 141.38 C 229.63 142.41 233.13 141.84 236.51 141.93 C 236.51 145.90 236.51 149.88 236.51 153.85 C 230.84 153.84 224.75 154.33 219.60 151.47 C 213.70 148.33 210.99 141.35 210.89 134.96 C 210.76 98.31 210.79 61.66 210.80 25.00 Z" opacity="1"/><path fill="#6a6868" d="M 121.22 65.29 C 131.05 54.23 146.53 49.63 161.00 50.90 C 173.77 51.61 185.87 58.23 193.78 68.21 C 193.78 62.94 193.78 57.68 193.78 52.41 C 197.78 52.40 201.78 52.40 205.78 52.40 C 205.80 86.22 205.78 120.04 205.79 153.86 C 201.79 153.86 197.78 153.87 193.78 153.86 C 193.78 149.06 193.77 144.27 193.79 139.47 C 185.34 148.60 173.46 154.61 161.00 155.46 C 149.06 156.44 136.51 153.56 127.00 146.05 C 115.10 136.88 108.77 121.84 108.24 107.05 C 107.44 92.27 110.88 76.40 121.22 65.29 M 147.38 63.54 C 138.26 65.54 130.36 71.80 125.97 80.00 C 121.01 88.69 119.93 99.04 120.78 108.87 C 121.66 118.39 125.14 128.11 132.31 134.71 C 140.89 142.83 153.73 145.06 165.04 142.77 C 176.46 140.07 186.36 132.38 192.66 122.58 C 193.41 121.55 193.80 120.32 193.75 119.04 C 193.85 109.28 194.18 99.30 191.37 89.83 C 188.69 80.46 183.15 71.34 174.38 66.58 C 166.22 62.03 156.36 61.60 147.38 63.54 Z" opacity="1"/><path fill="#6a6868" d="M 262.60 65.47 C 272.51 54.19 288.27 49.54 302.93 50.94 C 315.56 51.74 327.49 58.33 335.33 68.19 C 335.32 62.93 335.32 57.67 335.33 52.41 C 339.33 52.40 343.33 52.40 347.34 52.41 C 347.33 86.23 347.34 120.05 347.33 153.86 C 343.33 153.86 339.32 153.87 335.32 153.86 C 335.33 149.07 335.31 144.28 335.33 139.49 C 326.96 148.48 315.27 154.49 302.96 155.43 C 291.00 156.49 278.39 153.71 268.80 146.24 C 256.70 137.09 250.30 121.87 249.78 106.96 C 249.00 92.28 252.41 76.55 262.60 65.47 M 288.40 63.67 C 280.10 65.66 272.81 71.13 268.44 78.43 C 262.52 87.78 261.28 99.31 262.46 110.11 C 263.51 119.32 267.08 128.61 274.08 134.93 C 282.71 142.91 295.49 145.05 306.74 142.74 C 317.24 140.20 326.48 133.44 332.75 124.72 C 333.92 122.99 335.47 121.25 335.30 119.02 C 335.40 109.29 335.72 99.37 332.95 89.94 C 330.30 80.65 324.89 71.62 316.28 66.78 C 307.90 61.96 297.65 61.54 288.40 63.67 Z" opacity="1"/></g><g id="#f51f15ff"><path fill="#f51f15" d="M 365.34 65.41 C 375.10 54.36 390.48 49.69 404.91 50.88 C 417.79 51.51 430.05 58.13 438.01 68.21 C 438.02 62.94 438.00 57.67 438.02 52.40 C 442.02 52.41 446.02 52.40 450.03 52.41 C 450.03 86.22 450.03 120.04 450.03 153.86 C 446.02 153.86 442.02 153.86 438.02 153.87 C 438.01 149.06 438.01 144.27 438.02 139.47 C 429.53 148.67 417.54 154.68 405.00 155.48 C 392.81 156.42 379.99 153.32 370.46 145.44 C 359.02 136.20 352.99 121.46 352.47 106.98 C 351.68 92.27 355.11 76.50 365.34 65.41 M 391.48 63.57 C 383.08 65.48 375.65 70.96 371.20 78.32 C 365.23 87.67 363.97 99.23 365.14 110.06 C 366.19 119.37 369.85 128.77 376.97 135.11 C 385.51 142.87 398.00 144.99 409.08 142.81 C 419.83 140.34 429.26 133.41 435.61 124.48 C 436.71 122.85 438.16 121.20 437.98 119.08 C 438.08 109.42 438.42 99.56 435.70 90.19 C 433.10 80.85 427.71 71.76 419.10 66.86 C 410.82 62.04 400.67 61.54 391.48 63.57 Z" opacity="1"/><path fill="#f51f15" d="M 479.36 56.50 C 489.28 51.05 501.07 49.77 512.16 51.38 C 523.38 53.08 533.66 59.37 540.70 68.21 C 540.70 62.98 540.70 57.76 540.71 52.54 C 544.69 52.53 548.68 52.55 552.67 52.51 C 552.79 83.00 552.65 113.49 552.74 143.98 C 552.65 152.03 552.45 160.23 549.90 167.94 C 546.40 179.25 538.75 189.60 527.97 194.86 C 517.57 200.07 505.53 200.54 494.18 199.21 C 483.79 197.97 474.31 193.28 464.78 189.29 C 466.16 185.11 467.54 180.93 468.92 176.75 C 482.34 185.12 498.79 189.25 514.49 186.39 C 523.99 184.79 532.09 178.02 536.28 169.48 C 540.98 160.25 540.77 149.64 540.71 139.57 C 534.12 145.65 526.88 151.70 517.99 153.92 C 508.07 156.30 497.47 156.35 487.70 153.27 C 476.80 149.87 467.40 142.05 462.00 132.00 C 454.57 118.75 453.59 102.67 456.66 88.02 C 459.36 74.97 467.47 62.83 479.36 56.50 M 496.18 63.15 C 487.38 64.69 479.31 69.91 474.43 77.41 C 468.29 86.61 466.72 98.12 467.71 108.94 C 468.53 119.41 473.03 129.97 481.40 136.59 C 489.13 142.51 499.35 144.48 508.89 143.33 C 520.33 142.25 530.55 135.38 537.61 126.57 C 539.06 124.67 541.01 122.76 540.69 120.16 C 540.70 110.76 541.20 101.20 538.87 92.01 C 536.63 82.76 531.83 73.67 523.87 68.16 C 515.87 62.62 505.58 61.45 496.18 63.15 Z" opacity="1"/><path fill="#f51f15" d="M 571.08 66.02 C 587.99 46.63 621.23 45.47 639.75 63.19 C 651.95 74.32 657.66 91.95 654.77 108.13 C 626.63 108.13 598.49 108.13 570.35 108.13 C 571.22 117.72 574.90 127.34 582.01 134.04 C 590.28 142.26 602.76 144.72 614.01 143.24 C 624.24 141.83 634.81 138.31 641.88 130.42 C 644.82 133.30 647.71 136.23 650.65 139.12 C 641.82 149.46 628.21 154.48 614.91 155.39 C 601.96 156.64 588.15 154.30 577.56 146.37 C 565.49 137.51 558.64 122.73 557.91 107.96 C 556.84 93.06 560.68 77.14 571.08 66.02 M 582.54 71.54 C 575.62 77.83 571.80 86.86 570.55 95.99 C 594.69 96.00 618.84 96.01 642.98 95.99 C 641.54 84.36 635.36 72.88 624.97 66.99 C 611.77 59.65 593.70 61.04 582.54 71.54 Z" opacity="1"/></g></svg>