<svg xmlns="http://www.w3.org/2000/svg" viewBox="0 0 1201 1201"><g fill="#3571b8"><path d="M524 18.8c94.84-12.54 192.75-1.78 282.41 31.69 111.13 41.18 209.08 117.02 276.78 214.28-.64.96-1.16 1.97-1.55 3.04-8.71 28.92-21.42 56.94-39.85 81-15.89 20.85-36.15 38.33-59.1 51-29.2 16.24-61.99 24.96-94.93 29.54-47.66 6.5-95.95 5.16-143.84 2.29-48.03-3-95.94-7.81-143.97-10.85-53.55-3.19-107.63-4.74-160.86 3.25-37.78 5.6-74.49 17.57-108.79 34.26-31.52 15.48-60.83 35.52-86.42 59.58-49.69 46.32-84.62 106.75-106.56 170.66-14.05 40.64-23.22 82.87-28.52 125.51-4.26 34.99-6.16 70.31-4.79 105.54-43-67.38-71.93-143.68-84.34-222.65C2.2 586.92 16.32 471.95 60.9 369.79c28.11-64.97 68.11-124.74 117.25-175.68 48.25-50.09 105.37-91.65 167.97-121.97C402.06 45.02 462.35 26.89 524 18.8Z"/><path d="M1108.08 301.96c1.16 4.37 4.13 7.94 6.13 11.94 44.24 78.43 69.88 167.22 74.36 257.16 4.69 89.36-11.06 179.77-46.32 262.06-30.41 71.3-75 136.54-130.46 190.71-55.97 55.13-123.16 98.83-196.22 127.71-84.52 33.57-176.94 46.54-267.48 38.5-83.43-7.28-165.22-32.76-237.97-74.25-68.22-38.77-128.6-91.34-176.28-153.66 1.77-2.94 3.78-5.73 5.87-8.44 18.47-23.34 42.06-42.19 67.3-57.75 30.39-18.64 63.62-32.37 97.8-42.34 45.56-13.26 92.85-19.94 140.19-22.29 74.99-3.61 150.13 3.51 224.01 16.23 56.22 8.82 113.91 9.07 170.03-.67 38.48-6.74 76.24-18.26 111.36-35.47 32.11-15.73 62-36.33 87.14-61.85 25.78-26.06 46.37-57.3 59.83-91.42 15.41-38.36 21.52-79.94 21.34-121.13.7-12.01-.01-24.03 0-36.05-.65-40.67-2.48-81.31-4.81-121.92-1.63-25.71-3.12-51.44-5.82-77.07Z"/></g><path fill="#fff" d="M1083.19 264.77c1.28-.6 2.33-.31 3.14.87 4.64 6.35 8.58 13.18 13.25 19.5 3.5 5.18 8.45 10.17 8.5 16.82 2.7 25.63 4.19 51.36 5.82 77.07 2.33 40.61 4.16 81.25 4.81 121.92-.01 12.02.7 24.04 0 36.05.18 41.19-5.93 82.77-21.34 121.13-13.46 34.12-34.05 65.36-59.83 91.42-25.14 25.52-55.03 46.12-87.14 61.85-35.12 17.21-72.88 28.73-111.36 35.47-56.12 9.74-113.81 9.49-170.03.67-73.88-12.72-149.02-19.84-224.01-16.23-47.34 2.35-94.63 9.03-140.19 22.29-34.18 9.97-67.41 23.7-97.8 42.34-25.24 15.56-48.83 34.41-67.3 57.75-2.09 2.71-4.1 5.5-5.87 8.44-.48.8-.95 1.63-1.4 2.48-9.16-13.21-18.25-26.46-27.39-39.67-1.22-1.52-.81-3.57-1.04-5.35-1.37-35.23.53-70.55 4.79-105.54 5.3-42.64 14.47-84.87 28.52-125.51 21.94-63.91 56.87-124.34 106.56-170.66 25.59-24.06 54.9-44.1 86.42-59.58 34.3-16.69 71.01-28.66 108.79-34.26 53.23-7.99 107.31-6.44 160.86-3.25 48.03 3.04 95.94 7.85 143.97 10.85 47.89 2.87 96.18 4.21 143.84-2.29 32.94-4.58 65.73-13.3 94.93-29.54 22.95-12.67 43.21-30.15 59.1-51 18.43-24.06 31.14-52.08 39.85-81 .39-1.07.91-2.08 1.55-3.04m-29.97 105.48c-15.26 17.99-33.83 33.13-54.49 44.52-25.3 14.11-53.29 22.79-81.62 28.35-35.26 6.88-71.27 8.91-107.12 9.16-68.35-.08-136.44-7.51-204.08-16.77-49.9-5.95-100.63-6.79-150.41.73-41.23 6.17-81.74 18.32-118.83 37.49-32.28 16.68-61.89 38.56-87.17 64.67-23.68 24-43.6 51.54-60.24 80.82-21.46 37.9-37.3 78.82-48.72 120.81-12.34 45.56-19.67 92.45-22.28 139.57 12.08-51.62 30.88-101.7 56.01-148.4 19.17-35.38 42.25-68.76 69.7-98.22 23.78-25.58 50.82-48.19 80.59-66.48 33.82-20.83 71.04-36.07 109.68-45.2 47.93-11.49 97.73-13.8 146.75-9.87 23.49 1.72 46.72 5.81 70.12 8.41 44.46 5.15 89.25 8.03 134.02 7.01 33.82-.79 67.66-3.92 100.82-10.78 28.63-5.99 56.82-14.88 82.93-28.21 21.11-10.82 40.87-24.55 57.46-41.58 18.33-18.36 32.59-40.59 42.6-64.47 8.83-20.75 14.07-42.76 18.57-64.78-9.36 18.96-20.55 37.11-34.29 53.22m41.24-18.46c-11.32 43.86-33.95 85.41-67.72 115.99-19.83 18.15-42.96 32.48-67.51 43.3-25.27 11.16-51.97 18.85-79.06 24.11-41.86 8.1-84.6 10.62-127.16 10.39-48.13-.5-96.17-4.58-143.88-10.84-67.22-8.15-136.63-5.74-201.58 14.64-38.09 11.91-74.27 30.03-106.32 53.83-55.94 41.25-98.49 98.68-127.73 161.34-18.65 39.97-32.56 82.17-41.29 125.41 14.44-36.11 33.34-70.39 55.47-102.36 22.31-32.03 48.25-61.62 77.85-87.1 29.89-25.85 63.53-47.43 99.75-63.29 38.24-16.8 79.21-27.19 120.75-31.32 40.98-4.16 82.43-2.47 123.14 3.52 76.14 12.17 154.02 18.69 230.78 8.52 52-6.99 103.95-22.44 147.55-52.39 30.71-20.96 56.3-49.34 73.81-82.15 21.72-40.29 31.45-86.12 33.15-131.6m-38.2 167.6c-20.6 29.21-48.14 53.28-79.23 70.81-47.32 26.77-101.27 39.35-154.97 44.86-72.95 7.18-146.52 2.01-218.99-7.7-32.5-3.97-65.34-5.41-98.03-3.37-43.55 2.63-86.85 11.5-127.46 27.56-38.62 15.19-74.64 36.87-106.29 63.69-30.04 25.41-56.26 55.21-78.31 87.76-20.64 30.55-37.94 63.4-51.04 97.87 43.57-68.61 108.98-122.6 183.66-154.34 38.68-16.52 79.74-27.24 121.42-32.7 46.72-6.15 94.16-5.82 140.98-.87 21.46 2.21 42.71 6.02 64.16 8.36 35.48 4.06 71.21 6.27 106.92 5.57 52.89-1.04 106.17-8.22 156.01-26.51 35.21-12.91 68.48-31.77 96.33-57.02 27.31-24.66 49.1-55.3 63.76-89.03 18.3-42.11 26.39-88.5 24.32-134.32-8.26 35.35-22.07 69.73-43.24 99.38m45.59.98c-10.65 42.72-31.51 82.88-60.44 116.07-23.84 27.48-53.29 49.88-85.6 66.48-39.2 20.25-82.31 32.08-125.88 38.13-67.02 9.15-135.14 5.15-201.82-4.84-62.6-8.71-126.39-11.31-189.18-3.01-44.12 5.78-87.68 17.15-128.29 35.51-35.61 16.15-68.84 37.77-97.3 64.63-27.14 25.65-50.23 55.84-66.37 89.59 22.22-23.97 49.76-42.41 78.71-57.28 37.56-18.97 78.01-31.75 119.18-40.16 43.15-8.76 87.16-12.82 131.15-13.66 63.29-1.21 126.55 4.28 189.12 13.55 59.32 8 119.96 7.96 178.94-2.76 43.24-7.95 85.69-21.81 123.96-43.68 33.66-19.14 63.82-44.92 86.44-76.47 23.71-32.78 38.58-71.55 44.61-111.46 3.39-23.34 4.84-47.13 2.77-70.64Z"/><path fill="#14a54a" d="M1053.22 370.25c13.74-16.11 24.93-34.26 34.29-53.22-4.5 22.02-9.74 44.03-18.57 64.78-10.01 23.88-24.27 46.11-42.6 64.47-16.59 17.03-36.35 30.76-57.46 41.58-26.11 13.33-54.3 22.22-82.93 28.21-33.16 6.86-67 9.99-100.82 10.78-44.77 1.02-89.56-1.86-134.02-7.01-23.4-2.6-46.63-6.69-70.12-8.41-49.02-3.93-98.82-1.62-146.75 9.87-38.64 9.13-75.86 24.37-109.68 45.2-29.77 18.29-56.81 40.9-80.59 66.48-27.45 29.46-50.53 62.84-69.7 98.22-25.13 46.7-43.93 96.78-56.01 148.4 2.61-47.12 9.94-94.01 22.28-139.57 11.42-41.99 27.26-82.91 48.72-120.81 16.64-29.28 36.56-56.82 60.24-80.82 25.28-26.11 54.89-47.99 87.17-64.67 37.09-19.17 77.6-31.32 118.83-37.49 49.78-7.52 100.51-6.68 150.41-.73 67.64 9.26 135.73 16.69 204.08 16.77 35.85-.25 71.86-2.28 107.12-9.16 28.33-5.56 56.32-14.24 81.62-28.35 20.66-11.39 39.23-26.53 54.49-44.52Z"/><path fill="#fbe20a" d="M1094.46 351.79c-1.7 45.48-11.43 91.31-33.15 131.6-17.51 32.81-43.1 61.19-73.81 82.15-43.6 29.95-95.55 45.4-147.55 52.39-76.76 10.17-154.64 3.65-230.78-8.52-40.71-5.99-82.16-7.68-123.14-3.52-41.54 4.13-82.51 14.52-120.75 31.32-36.22 15.86-69.86 37.44-99.75 63.29-29.6 25.48-55.54 55.07-77.85 87.1-22.13 31.97-41.03 66.25-55.47 102.36 8.73-43.24 22.64-85.44 41.29-125.41 29.24-62.66 71.79-120.09 127.73-161.34 32.05-23.8 68.23-41.92 106.32-53.83 64.95-20.38 134.36-22.79 201.58-14.64 47.71 6.26 95.75 10.34 143.88 10.84 42.56.23 85.3-2.29 127.16-10.39 27.09-5.26 53.79-12.95 79.06-24.11 24.55-10.82 47.68-25.15 67.51-43.3 33.77-30.58 56.4-72.13 67.72-115.99Z"/><path fill="#ec2028" d="M1056.26 519.39c21.17-29.65 34.98-64.03 43.24-99.38 2.07 45.82-6.02 92.21-24.32 134.32-14.66 33.73-36.45 64.37-63.76 89.03-27.85 25.25-61.12 44.11-96.33 57.02-49.84 18.29-103.12 25.47-156.01 26.51-35.71.7-71.44-1.51-106.92-5.57-21.45-2.34-42.7-6.15-64.16-8.36-46.82-4.95-94.26-5.28-140.98.87-41.68 5.46-82.74 16.18-121.42 32.7-74.68 31.74-140.09 85.73-183.66 154.34 13.1-34.47 30.4-67.32 51.04-97.87 22.05-32.55 48.27-62.35 78.31-87.76 31.65-26.82 67.67-48.5 106.29-63.69 40.61-16.06 83.91-24.93 127.46-27.56 32.69-2.04 65.53-.6 98.03 3.37 72.47 9.71 146.04 14.88 218.99 7.7 53.7-5.51 107.65-18.09 154.97-44.86 31.09-17.53 58.63-41.6 79.23-70.81Z"/><path fill="#231f20" d="M1101.85 520.37c2.07 23.51.62 47.3-2.77 70.64-6.03 39.91-20.9 78.68-44.61 111.46-22.62 31.55-52.78 57.33-86.44 76.47-38.27 21.87-80.72 35.73-123.96 43.68-58.98 10.72-119.62 10.76-178.94 2.76-62.57-9.27-125.83-14.76-189.12-13.55-43.99.84-88 4.9-131.15 13.66-41.17 8.41-81.62 21.19-119.18 40.16-28.95 14.87-56.49 33.31-78.71 57.28 16.14-33.75 39.23-63.94 66.37-89.59 28.46-26.86 61.69-48.48 97.3-64.63 40.61-18.36 84.17-29.73 128.29-35.51 62.79-8.3 126.58-5.7 189.18 3.01 66.68 9.99 134.8 13.99 201.82 4.84 43.57-6.05 86.68-17.88 125.88-38.13 32.31-16.6 61.76-39 85.6-66.48 28.93-33.19 49.79-73.35 60.44-116.07Z"/></svg>